HIERARCHY
ROOT Hips
{
	OFFSET 0.00000 0.00000 0.00000
	CHANNELS 6 Xposition Yposition Zposition Zrotation Yrotation Xrotation 
	JOINT LHipJoint
	{
		OFFSET 0 0 0
		CHANNELS 3 Zrotation Yrotation Xrotation
		JOINT LeftUpLeg
		{
			OFFSET 1.53794 -1.55850 0.93568
			CHANNELS 3 Zrotation Yrotation Xrotation
			JOINT LeftLeg
			{
				OFFSET 2.28545 -6.27922 0.00000
				CHANNELS 3 Zrotation Yrotation Xrotation
				JOINT LeftFoot
				{
					OFFSET 2.37329 -6.52057 0.00000
					CHANNELS 3 Zrotation Yrotation Xrotation
					JOINT LeftToeBase
					{
						OFFSET 0.14846 -0.40788 2.09160
						CHANNELS 3 Zrotation Yrotation Xrotation
						End Site
						{
							OFFSET 0.00000 -0.00000 1.07536
						}
					}
				}
			}
		}
	}
	JOINT RHipJoint
	{
		OFFSET 0 0 0
		CHANNELS 3 Zrotation Yrotation Xrotation
		JOINT RightUpLeg
		{
			OFFSET -1.78290 -1.55850 0.93568
			CHANNELS 3 Zrotation Yrotation Xrotation
			JOINT RightLeg
			{
				OFFSET -2.24144 -6.15831 0.00000
				CHANNELS 3 Zrotation Yrotation Xrotation
				JOINT RightFoot
				{
					OFFSET -2.35091 -6.45907 0.00000
					CHANNELS 3 Zrotation Yrotation Xrotation
					JOINT RightToeBase
					{
						OFFSET -0.14428 -0.39641 2.07944
						CHANNELS 3 Zrotation Yrotation Xrotation
						End Site
						{
							OFFSET -0.00000 -0.00000 1.06864
						}
					}
				}
			}
		}
	}
	JOINT LowerBack
	{
		OFFSET 0 0 0
		CHANNELS 3 Zrotation Yrotation Xrotation
		JOINT Spine
		{
			OFFSET -0.08841 2.11430 -0.15818
			CHANNELS 3 Zrotation Yrotation Xrotation
			JOINT Spine1
			{
				OFFSET -0.00033 2.12605 -0.08097
				CHANNELS 3 Zrotation Yrotation Xrotation
				JOINT Neck
				{
					OFFSET 0 0 0
					CHANNELS 3 Zrotation Yrotation Xrotation
					JOINT Neck1
					{
						OFFSET 0.04431 1.59447 0.43193
						CHANNELS 3 Zrotation Yrotation Xrotation
						JOINT Head
						{
							OFFSET 0.00455 1.62017 -0.58852
							CHANNELS 3 Zrotation Yrotation Xrotation
							End Site
							{
								OFFSET -0.00920 1.72955 -0.25850
							}
						}
					}
				}
				JOINT LeftShoulder
				{
					OFFSET 0 0 0
					CHANNELS 3 Zrotation Yrotation Xrotation
					JOINT LeftArm
					{
						OFFSET 2.86490 1.49927 -0.33774
						CHANNELS 3 Zrotation Yrotation Xrotation
						JOINT LeftForeArm
						{
							OFFSET 4.87408 -0.00000 0.00000
							CHANNELS 3 Zrotation Yrotation Xrotation
							JOINT LeftHand
							{
								OFFSET 2.76729 -0.00000 0.00000
								CHANNELS 3 Zrotation Yrotation Xrotation
								JOINT LeftFingerBase
								{
									OFFSET 0 0 0
									CHANNELS 3 Zrotation Yrotation Xrotation
									JOINT LeftHandIndex1
									{
										OFFSET 0.98922 -0.00000 0.00000
										CHANNELS 3 Zrotation Yrotation Xrotation
										End Site
										{
											OFFSET 0.79753 -0.00000 0.00000
										}
									}
								}
								JOINT LThumb
								{
									OFFSET 0 0 0
									CHANNELS 3 Zrotation Yrotation Xrotation
									End Site
									{
										OFFSET 0.80972 -0.00000 0.80972
									}
								}
							}
						}
					}
				}
				JOINT RightShoulder
				{
					OFFSET 0 0 0
					CHANNELS 3 Zrotation Yrotation Xrotation
					JOINT RightArm
					{
						OFFSET -2.94414 1.45463 -0.25291
						CHANNELS 3 Zrotation Yrotation Xrotation
						JOINT RightForeArm
						{
							OFFSET -4.71404 -0.00000 0.00000
							CHANNELS 3 Zrotation Yrotation Xrotation
							JOINT RightHand
							{
								OFFSET -2.83468 -0.00000 0.00000
								CHANNELS 3 Zrotation Yrotation Xrotation
								JOINT RightFingerBase
								{
									OFFSET 0 0 0
									CHANNELS 3 Zrotation Yrotation Xrotation
									JOINT RightHandIndex1
									{
										OFFSET -0.86820 -0.00000 0.00000
										CHANNELS 3 Zrotation Yrotation Xrotation
										End Site
										{
											OFFSET -0.69996 -0.00000 0.00000
										}
									}
								}
								JOINT RThumb
								{
									OFFSET 0 0 0
									CHANNELS 3 Zrotation Yrotation Xrotation
									End Site
									{
										OFFSET -0.71065 -0.00000 0.71065
									}
								}
							}
						}
					}
				}
			}
		}
	}
}
MOTION
Frames: 7
Frame Time: .0083333
0.8056 16.4883 31.2129 0 0 0 0 0 0 -21 0 0 0 0 0 0 0 0 0 0 0 0 0 0 21 0 0 0 0 0 0 0 0 0 0 0 0 0 0 0 0 0 0 0 0 0 0 -16 0 0 21 0 0 11 0 0 0 -8 0 0 0 0 0 0 0 0 0 0 0 0 0 0 0 0 0 0 0 0 8 0 0 0 0 0 0 0 0 0 0 0 0 0 0 0 0 0
0.8056 16.4883 31.2129 177.0890 2.3430 -171.3180 0.0000 0.0000 0.0000 -28.1217 -0.5877 -1.1538 4.4846 12.7787 38.5457 3.3487 14.3469 33.2070 0.7844 5.6541 15.7839 0.0000 0.0000 0.0000 14.6275 16.6754 -35.3962 -3.9193 -12.0522 35.9168 -0.4632 -11.2846 13.5170 -1.4364 7.5776 -21.4381 -4.1282 -5.2933 -5.0358 -2.1235 -6.6169 0.7456 -0.4542 -3.3047 3.8025 7.5095 3.0487 -28.3702 -3.5052 6.4789 42.4846 -1.0836 4.2175 23.9759 0.0000 0.0000 0.0000 -63.9582 14.7950 62.8633 109.2271 -58.5560 -76.5705 -0.0000 -0.0000 21.4712 13.9766 1.7180 0.4275 -7.1250 0.0000 -0.0000 -10.0749 31.6478 3.3357 0.0000 0.0000 0.0000 74.0182 -50.1045 32.8487 -68.2480 58.1345 -41.2802 0.0000 0.0000 1.6027 -7.8676 -5.3431 0.7372 7.1250 -0.0000 -0.0000 15.5328 -35.0145 3.9297
0.8243 16.4291 30.9525 177.2730 2.5827 -171.5700 0.0000 0.0000 0.0000 -27.8229 -0.4221 -1.9140 5.0080 13.3928 40.8573 3.5669 14.7400 34.3117 0.9193 6.1087 17.1003 0.0000 0.0000 0.0000 15.3857 16.3462 -34.3772 -4.0374 -12.2101 36.4792 -0.5538 -10.6372 14.2179 -1.8595 8.5670 -24.4500 -4.0053 -5.0628 -4.8316 -2.0988 -6.3355 0.7491 -0.4497 -3.1647 3.6726 7.8350 3.1014 -28.3667 -3.7586 6.4537 42.3387 -1.2988 4.2237 23.8871 0.0000 0.0000 0.0000 -63.9482 15.6108 62.7052 108.8259 -58.6176 -76.2280 -0.0000 -0.0000 21.4422 13.9394 1.7138 0.4253 -7.1250 0.0000 -0.0000 -10.1039 31.6427 3.3468 0.0000 0.0000 0.0000 73.9325 -49.8405 33.3277 -68.3300 58.1491 -41.3498 0.0000 0.0000 1.3626 -7.7451 -5.1819 0.7038 7.1250 -0.0000 -0.0000 15.5993 -34.8517 4.0117
0.8455 16.3585 30.6966 177.3780 2.7896 -171.8320 0.0000 0.0000 0.0000 -27.5491 -0.2519 -2.8246 5.6204 14.0501 43.4384 3.5670 15.0442 34.3353 0.9362 6.1633 17.2589 0.0000 0.0000 0.0000 16.2001 15.5761 -33.4075 -4.2021 -12.4246 37.2511 -1.0490 -10.0420 18.5575 -0.6086 4.9934 -13.8898 -3.9850 -4.8398 -4.6091 -2.0953 -6.0545 0.7679 -0.4125 -3.0257 3.5579 7.6660 3.0343 -28.5398 -3.6540 6.3306 42.2941 -1.2423 4.1546 23.8735 0.0000 0.0000 0.0000 -64.0207 16.4094 62.3584 108.4070 -58.6803 -75.8703 -0.0000 -0.0000 21.1792 13.7002 1.7702 0.4314 -7.1250 0.0000 -0.0000 -10.3000 31.6939 3.4007 0.0000 0.0000 0.0000 73.9939 -49.4503 33.7035 -68.2618 58.1369 -41.2919 0.0000 0.0000 1.4269 -7.7390 -4.8140 0.6534 7.1250 -0.0000 -0.0000 15.5318 -34.4940 4.1332
0.8661 16.2773 30.4430 177.6190 2.8149 -171.9770 0.0000 0.0000 0.0000 -27.0402 -0.1869 -3.8988 6.2586 14.6743 46.0108 3.1623 15.3544 32.3605 0.7785 5.6333 15.7240 0.0000 0.0000 0.0000 16.9788 15.0763 -32.3755 -4.3621 -12.6272 37.9886 -0.2232 -7.5662 9.2745 -1.5964 7.9693 -22.6209 -4.6272 -4.6917 -4.8428 -1.4026 -5.8488 1.0443 0.6254 -2.9664 4.1094 7.0289 2.9556 -29.0590 -3.9650 6.5877 42.1211 -1.2229 4.0517 23.9319 -0.0000 -0.0000 0.0000 -65.3863 16.6956 61.7034 107.3961 -58.8251 -75.0060 -0.0000 -0.0000 21.4729 13.7675 1.8960 0.4645 -7.1250 0.0000 -0.0000 -10.2618 31.8231 3.3553 -0.0000 -0.0000 0.0000 73.1549 -48.3772 34.0999 -68.4608 58.1723 -41.4610 0.0000 0.0000 0.9578 -7.8717 -5.1577 0.7121 7.1250 -0.0000 -0.0000 15.4926 -34.8346 3.9892
0.8872 16.1936 30.1905 177.8490 2.8977 -172.1380 0.0000 0.0000 0.0000 -26.5610 -0.1478 -4.9621 6.9462 15.2864 48.6707 2.8799 15.6962 30.9529 0.7114 5.3906 15.0260 0.0000 0.0000 0.0000 17.7283 14.6280 -31.3976 -4.5371 -12.8427 38.7826 -0.0736 -6.5727 6.2800 -1.7444 8.3121 -23.6662 -4.7281 -4.4871 -4.7334 -1.1609 -5.5957 1.0690 0.9603 -2.8516 4.0949 6.8601 2.8808 -29.1480 -4.0906 6.5825 42.0195 -1.2637 3.9945 23.8717 0.0000 0.0000 0.0000 -65.8872 17.4131 61.2712 106.6340 -58.9283 -74.3536 -0.0000 -0.0000 21.5657 13.7477 1.9220 0.4701 -7.1250 0.0000 -0.0000 -10.2806 31.8489 3.3552 0.0000 0.0000 0.0000 73.0051 -47.8107 34.4721 -68.4308 58.1670 -41.4355 0.0000 0.0000 1.0414 -8.1087 -5.0450 0.7178 7.1250 -0.0000 -0.0000 15.2799 -34.7367 3.9686
0.9089 16.1047 29.9405 178.1160 2.9422 -172.2680 0.0000 0.0000 0.0000 -26.0085 -0.1847 -6.1227 7.6899 15.8864 51.4379 2.5085 16.0272 29.0269 0.6207 5.0417 14.0275 0.0000 0.0000 0.0000 18.4933 14.2190 -30.4215 -4.7109 -13.0507 39.5584 0.0329 -5.9243 3.1399 -1.8690 8.5878 -24.5142 -4.7299 -4.2679 -4.5357 -0.9653 -5.3332 1.0166 1.2055 -2.7252 3.9328 6.7085 2.7625 -29.1126 -4.1646 6.5064 41.9550 -1.2983 3.9331 23.7846 -0.0000 -0.0000 0.0000 -66.3142 18.2185 60.8339 105.7668 -59.0395 -73.6104 -0.0000 -0.0000 21.6692 13.7715 1.8906 0.4633 -7.1250 0.0000 -0.0000 -10.2579 31.8177 3.3554 -0.0000 -0.0000 0.0000 73.0373 -47.2920 34.7991 -68.3067 58.1449 -41.3300 0.0000 0.0000 1.3259 -8.4820 -4.8248 0.7186 7.1250 -0.0000 -0.0000 14.9374 -34.5401 3.9481
